<svg width="24" height="22" viewBox="0 0 24 22" fill="none" xmlns="http://www.w3.org/2000/svg">
<path d="M2.18745 2.28882e-05H0V4.35951H2.18745V2.28882e-05Z" fill="black"/>
<path d="M19.6562 2.28882e-05H17.4687V4.35951H19.6562V2.28882e-05Z" fill="black"/>
<path d="M2.18745 8.73443H0V13.0939H2.18745V8.73443Z" fill="black"/>
<path d="M15.2814 4.35951H13.094V8.719H15.2814V4.35951Z" fill="black"/>
<path d="M2.18745 4.35951H0V8.719H2.18745V4.35951Z" fill="black"/>
<path d="M10.9218 13.0939H8.73438V17.4534H10.9218V13.0939Z" fill="black"/>
<path d="M2.18745 13.0939H0V17.4534H2.18745V13.0939Z" fill="black"/>
<path d="M19.6562 13.0939H17.4687V17.4534H19.6562V13.0939Z" fill="black"/>
<path d="M2.18745 17.4688H0V21.8283H2.18745V17.4688Z" fill="black"/>
<path d="M19.6562 17.4688H17.4687V21.8283H19.6562V17.4688Z" fill="black"/>
<path d="M6.53057 0H2.17108V4.35949H6.53057V0Z" fill="#FFCD00"/>
<path d="M23.9993 0H19.6398V4.35949H23.9993V0Z" fill="#FFCD00"/>
<path d="M10.9053 8.73438H6.54585V13.0939H10.9053V8.73438Z" fill="#FF6F00"/>
<path d="M15.2649 8.73438H10.9055V13.0939H15.2649V8.73438Z" fill="#FF6F00"/>
<path d="M19.6397 8.73438H15.2802V13.0939H19.6397V8.73438Z" fill="#FF6F00"/>
<path d="M6.53057 8.73438H2.17108V13.0939H6.53057V8.73438Z" fill="#FF6F00"/>
<path d="M23.9993 8.73438H19.6398V13.0939H23.9993V8.73438Z" fill="#FF6F00"/>
<path d="M10.9053 4.35947H6.54585V8.71897H10.9053V4.35947Z" fill="#FFA200"/>
<path d="M19.6397 4.35947H15.2802V8.71897H19.6397V4.35947Z" fill="#FFA200"/>
<path d="M6.53057 4.35947H2.17108V8.71897H6.53057V4.35947Z" fill="#FFA200"/>
<path d="M23.9993 4.35947H19.6398V8.71897H23.9993V4.35947Z" fill="#FFA200"/>
<path d="M15.2649 13.0939H10.9055V17.4534H15.2649V13.0939Z" fill="#FF4A0A"/>
<path d="M6.53057 13.0939H2.17108V17.4534H6.53057V13.0939Z" fill="#FF4A0A"/>
<path d="M23.9993 13.0939H19.6398V17.4534H23.9993V13.0939Z" fill="#FF4A0A"/>
<path d="M6.53057 17.4688H2.17108V21.8283H6.53057V17.4688Z" fill="#FF060F"/>
<path d="M23.9993 17.4688H19.6398V21.8283H23.9993V17.4688Z" fill="#FF060F"/>
</svg>
